<?xml version="1.0" encoding="UTF-8" standalone="no"?>
<!DOCTYPE svg PUBLIC "-//W3C//DTD SVG 1.1//EN" "http://www.w3.org/Graphics/SVG/1.1/DTD/svg11.dtd">
<svg width="100%" height="100%" viewBox="0 0 449 237" version="1.1" xmlns="http://www.w3.org/2000/svg" xmlns:xlink="http://www.w3.org/1999/xlink" xml:space="preserve" xmlns:serif="http://www.serif.com/" style="fill-rule:evenodd;clip-rule:evenodd;stroke-linejoin:round;stroke-miterlimit:2;">
    <g transform="matrix(1,0,0,1,-3124.97,-2251.64)">
        <g transform="matrix(2.34076,0,0,2.07681,2593.39,1540.9)">
            <g transform="matrix(1,0,0,0.774157,-1.55202,20.1364)">
                <g transform="matrix(0.427211,0,0,0.621977,-1102.96,-1011.82)">
                    <rect x="3116.98" y="2295.7" width="448.23" height="236.74"/>
                </g>
                <g transform="matrix(0.427211,0,0,0.621977,-1003.27,-870.482)">
                    <text x="3050.3px" y="2146.5px" style="font-family:'AbrilFatface-Regular', 'Abril Fatface';font-size:30px;fill:rgb(236,254,94);"><tspan x="3050.3px 3068.27px 3084.47px 3101.45px 3108.35px 3127.49px 3145.28px 3161.63px 3172.64px 3192.62px " y="2146.5px 2146.5px 2146.5px 2146.5px 2146.5px 2146.5px 2146.5px 2146.5px 2146.5px 2146.5px ">are boring</tspan></text>
                    <g transform="matrix(30,0,0,30,3241.88,2218.5)">
                    </g>
                    <text x="3043.4px" y="2218.5px" style="font-family:'AbrilFatface-Regular', 'Abril Fatface';font-size:30px;fill:rgb(236,254,94);">b<tspan x="3062.54px 3082.19px 3095.51px 3102.41px 3115.73px 3135.71px 3151.94px 3169.4px 3176.3px 3196.28px 3213.26px 3224.24px " y="2218.5px 2218.5px 2218.5px 2218.5px 2218.5px 2218.5px 2218.5px 2218.5px 2218.5px 2218.5px 2218.5px 2218.5px ">ut they help</tspan></text>
                </g>
                <g transform="matrix(2.61591e-17,-0.621977,0.427211,3.80851e-17,-647.615,2436.79)">
                    <g transform="matrix(64,0,0,64,3213.89,2172)">
                    </g>
                    <text x="3043.4px" y="2172px" style="font-family:'AbrilFatface-Regular', 'Abril Fatface';font-size:64px;fill:rgb(236,254,94);">B<tspan x="3088.77px 3112.2px 3150.15px 3186.12px " y="2172px 2172px 2172px 2172px ">logs</tspan></text>
                </g>
            </g>
        </g>
    </g>
</svg>
