<?xml version="1.0" encoding="UTF-8" standalone="no"?>
<!DOCTYPE svg PUBLIC "-//W3C//DTD SVG 1.1//EN" "http://www.w3.org/Graphics/SVG/1.1/DTD/svg11.dtd">
<svg width="100%" height="100%" viewBox="0 0 1464 954" version="1.1" xmlns="http://www.w3.org/2000/svg" xmlns:xlink="http://www.w3.org/1999/xlink" xml:space="preserve" xmlns:serif="http://www.serif.com/" style="fill-rule:evenodd;clip-rule:evenodd;stroke-linejoin:round;stroke-miterlimit:1.5;">
    <g transform="matrix(1,0,0,1,-9833,-4139)">
        <g id="Artboard5" transform="matrix(1,0,0,0.867609,-0.764293,547.359)">
            <rect x="9833.76" y="4139.7" width="1463.06" height="1098.59"/>
            <g>
                <g transform="matrix(1,0,0,1.15259,390.567,-203.046)">
                    <g transform="matrix(144,0,0,144,10504.3,4273.82)">
                    </g>
                    <text x="9869.39px" y="4273.82px" style="font-family:'AbrilFatface-Regular', 'Abril Fatface';font-size:144px;fill:rgb(226,255,0);">F<tspan x="10097.2px 10353.2px " y="4273.82px 4273.82px ">OR</tspan></text>
                </g>
                <g transform="matrix(1,0,0,1.15259,48.3074,-509.947)">
                    <g transform="matrix(144,0,0,144,11283.3,4273.82)">
                    </g>
                    <text x="9869.39px" y="4273.82px" style="font-family:'AbrilFatface-Regular', 'Abril Fatface';font-size:144px;fill:rgb(226,255,0);">E<tspan x="10042px 10207.6px 10366.9px 10522.4px 10676.9px 10807.5px 10955px 11112.8px " y="4273.82px 4273.82px 4273.82px 4273.82px 4273.82px 4273.82px 4273.82px 4273.82px ">xercises</tspan></text>
                </g>
                <g transform="matrix(1,0,0,1.15259,48.3074,81.0987)">
                    <g transform="matrix(144,0,0,144,11201,4273.82)">
                    </g>
                    <text x="9869.39px" y="4273.82px" style="font-family:'AbrilFatface-Regular', 'Abril Fatface';font-size:144px;fill:rgb(226,255,0);">P<tspan x="9995.24px 10100.4px 10213.1px 10322.8px 10426.5px 10540.1px 10702.6px 10865px 10973.9px 11078px " y="4273.82px 4273.82px 4273.82px 4273.82px 4273.82px 4273.82px 4273.82px 4273.82px 4273.82px 4273.82px ">rogrammers</tspan></text>
                </g>
                <g transform="matrix(1.80897,0,0,1.72889,-7909.37,-2973.51)">
                    <rect x="9833" y="4139" width="575.291" height="585.021" style="fill:none;stroke:rgb(249,255,0);stroke-width:1.81px;"/>
                </g>
                <g transform="matrix(1.85333,0,0,1.72889,-8015.35,-2972.59)">
                    <rect x="9833" y="4139" width="575.291" height="585.021" style="fill:none;stroke:rgb(249,255,0);stroke-width:1.78px;"/>
                </g>
            </g>
        </g>
    </g>
</svg>
