<?xml version="1.0" encoding="UTF-8" standalone="no"?>
<!DOCTYPE svg PUBLIC "-//W3C//DTD SVG 1.1//EN" "http://www.w3.org/Graphics/SVG/1.1/DTD/svg11.dtd">
<svg width="100%" height="100%" viewBox="0 0 1464 954" version="1.1" xmlns="http://www.w3.org/2000/svg" xmlns:xlink="http://www.w3.org/1999/xlink" xml:space="preserve" xmlns:serif="http://www.serif.com/" style="fill-rule:evenodd;clip-rule:evenodd;stroke-linejoin:round;stroke-miterlimit:1.5;">
    <g transform="matrix(1,0,0,1,-9855.24,-5214.97)">
        <g id="Artboard5" transform="matrix(1,0,0,0.867609,21.4708,1623.33)">
            <rect x="9833.76" y="4139.7" width="1463.06" height="1098.59"/>
            <g transform="matrix(1,0,0,1.15259,166.115,-481.075)">
                <g transform="matrix(144,0,0,144,10574,4273.82)">
                </g>
                <text x="9869.39px" y="4273.82px" style="font-family:'AbrilFatface-Regular', 'Abril Fatface';font-size:144px;fill:rgb(226,255,0);">S<tspan x="10047.9px 10195.4px 10362px 10499.7px " y="4273.82px 4273.82px 4273.82px 4273.82px ">tyle</tspan></text>
            </g>
            <g transform="matrix(1,0,0,1.15259,446.993,54.7902)">
                <g transform="matrix(144,0,0,144,10603.6,4273.82)">
                </g>
                <text x="9869.39px" y="4273.82px" style="font-family:'AbrilFatface-Regular', 'Abril Fatface';font-size:144px;fill:rgb(226,255,0);">G<tspan x="10057px 10229.1px 10359.7px 10529.3px " y="4273.82px 4273.82px 4273.82px 4273.82px ">uide</tspan></text>
            </g>
            <g transform="matrix(1,0,0,1.15259,-26.1319,-1848.54)">
                <rect x="9882.13" y="5214.97" width="746.422" height="914.105" style="fill:none;stroke:rgb(249,255,0);stroke-width:3px;"/>
            </g>
            <g transform="matrix(1.0437,0,0,1.15259,181.543,-1848.54)">
                <rect x="9882.13" y="5214.97" width="746.422" height="914.105" style="fill:none;stroke:rgb(249,255,0);stroke-width:2.94px;"/>
            </g>
        </g>
    </g>
</svg>
